# xmcd
#
# Track frame offsets:
#	150
#	16784
#	28636
#	43504
#	58797
#	70855
#	85055
#	97398
#	118261
#	129772
#	139917
#	152744
#	162722
#	174073
#
# Disc length: 2498 seconds
#
# Revision: 1
# Processed by: cddbd v1.5.2PL0 Copyright (c) Steve Scherf et al.
# Submitted via: audiograbber 1.83.01
#
DISCID=b809c00e
DTITLE=Chris Hart - My English Dream
DYEAR=2010
DGENRE=Country
TTITLE0=Pleas realeas me (2010)
TTITLE1=Running bear (2010)
TTITLE2=Only you (2010)
TTITLE3=Everybody loves somebody sometime (2010)
TTITLE4=Some broken hearts (2010)
TTITLE5=Let your love flow (2010)
TTITLE6=Distant drums (2010)
TTITLE7=I miss your money honey (2010)
TTITLE8=Crazy (2010)
TTITLE9=From a Jack to a king (2010)
TTITLE10=Help me make it through the night (2010)
TTITLE11=He'll have to go (2010)
TTITLE12=I love you because (2010)
TTITLE13=Walk on by (2010)
EXTD=
EXTT0=
EXTT1=
EXTT2=
EXTT3=
EXTT4=
EXTT5=
EXTT6=
EXTT7=
EXTT8=
EXTT9=
EXTT10=
EXTT11=
EXTT12=
EXTT13=
PLAYORDER=
